<?xml version="1.0" encoding="utf-8"?>
<!-- Generator: Adobe Illustrator 26.0.1, SVG Export Plug-In . SVG Version: 6.00 Build 0)  -->
<svg version="1.1" id="Calque_1" xmlns="http://www.w3.org/2000/svg" xmlns:xlink="http://www.w3.org/1999/xlink" x="0px" y="0px"
	 viewBox="0 0 32 32" style="enable-background:new 0 0 32 32;" xml:space="preserve">
<style type="text/css">
	.st0{fill:#F1FFF3;}
</style>
<g id="Calque_2_00000025422982384902721210000016099048058306614421_">
	<g id="Logo">
		<path class="st0" d="M5,13.5c0-2.4,0.7-4.7,1.9-6.7c-4.2,2.4-6.7,6.8-6.7,11.6C0.2,26,6.2,32,13.7,32c4.8,0,9.2-2.5,11.6-6.7
			c-2,1.2-4.4,1.9-6.7,1.9C11,26.9,5,20.9,5,13.5z"/>
		<path class="st0" d="M18.4,0C13.6,0,9.2,2.5,6.8,6.7c2-1.2,4.4-1.9,6.7-1.9c7.5,0,13.5,6,13.5,13.5c0,2.4-0.7,4.7-1.9,6.7
			c4.2-2.4,6.7-6.8,6.7-11.6C31.9,6,25.9,0,18.4,0z"/>
	</g>
</g>
</svg>
