<svg xmlns="http://www.w3.org/2000/svg" viewBox="0 0 672.09 200.02"><defs><style>.cls-1{fill:#1b301e;}</style></defs><g id="Calque_2" data-name="Calque 2"><g id="Logo"><polygon class="cls-1" points="24.96 0 0 0 0 197.72 113.47 197.72 113.47 175.31 24.96 175.31 24.96 0"/><path class="cls-1" d="M228.63,127.37q0,17.87-4.25,29.22T212,173.46Q204,179,192.32,179q-10.5,0-17.59-4.4T164.1,161q-3.56-9.21-3.55-23.12v-80H136.72v88.5q0,17.59,5.82,29.5a40,40,0,0,0,16.88,18q11.06,6.09,26.09,6.1,17,0,30.07-8.23a45.17,45.17,0,0,0,13-12.49v18.45h23.83V57.87H228.63Z"/><path class="cls-1" d="M451.3,63.4q-10.49-7.8-27.8-7.8-13.61,0-23.4,5.25a44.3,44.3,0,0,0-16.31,15.31c-.92,1.42-1.78,2.94-2.63,4.48a47.47,47.47,0,0,0-3-5.61,39.89,39.89,0,0,0-15.89-14.61,49.56,49.56,0,0,0-22.41-4.82,46.81,46.81,0,0,0-14.6,2.27,41.62,41.62,0,0,0-12.91,6.95A44,44,0,0,0,302,76.73c-.75,1.24-1.45,2.53-2.12,3.88V57.87H275.72V197.72h24.11V122.55q0-15.33,4-25.54t11.34-15.46a29.61,29.61,0,0,1,17.59-5.24q14.19,0,21.56,9.93t7.38,30.06v81.42h24.11V122.55q0-15.33,3.83-25.68t11.06-15.46q7.23-5.1,17.45-5.1,10.77,0,17.16,5.1t9.36,14.47a74.54,74.54,0,0,1,3,22.41v79.43h23.82v-85.1a80.77,80.77,0,0,0-4.82-28.51A44.6,44.6,0,0,0,451.3,63.4Z"/><path class="cls-1" d="M522.09,97.63a74.51,74.51,0,0,1,10.07-37.54A75,75,0,1,0,634.63,162.56,75,75,0,0,1,522.09,97.63Z"/><path class="cls-1" d="M597.09,22.63a74.93,74.93,0,0,0-64.93,37.46A75,75,0,0,1,634.63,162.56,75,75,0,0,0,597.09,22.63Z"/></g></g></svg>