<svg xmlns="http://www.w3.org/2000/svg" viewBox="0 0 600 600"><defs><style>.cls-1{fill:#1b301e;}</style></defs><g id="Calque_2" data-name="Calque 2"><g id="Logo"><path class="cls-1" d="M92.64,253.68a252.08,252.08,0,0,1,34.06-127A253.45,253.45,0,0,0,0,346.32C0,486.42,113.58,600,253.68,600A253.45,253.45,0,0,0,473.3,473.3a252.08,252.08,0,0,1-127,34.06C206.22,507.36,92.64,393.78,92.64,253.68Z"/><path class="cls-1" d="M346.32,0A253.45,253.45,0,0,0,126.7,126.7a252.08,252.08,0,0,1,127-34.06c140.1,0,253.68,113.58,253.68,253.68a252.08,252.08,0,0,1-34.06,127A253.45,253.45,0,0,0,600,253.68C600,113.58,486.42,0,346.32,0Z"/></g></g></svg>